8b    d8    db    .dP"Y8 888888 88 888888  dP"Yb  88""Yb 88""Yb 888888 88b 88 888888 .dP"Y8 
88b  d88   dPYb   `Ybo."   88   88   88   dP   Yb 88__dP 88__dP 88__   88Yb88   88   `Ybo." 
88YbdP88  dP__Yb  o.`Y8b   88   88   88   Yb   dP 88"Yb  88"Yb  88""   88 Y88   88   o.`Y8b 
88 YY 88 dP""""Yb 8bodP'   88   88   88    YbodP  88  Yb 88  Yb 888888 88  Y8   88   8bodP' 






MASTI TORRENTS RELEASERS [ MTR ]

    Where Quality Matters!











description:

Bhindi Bazaar Inc

Language: Hindi

Critic Rating: (2/5)

Release Year: 2011

Cast: Kay Kay Menon, Prashant Narayan, Piyush Mishra, Pawan Malhotra, Shilpa Shukla, Deepti Naval, Shwetabh Varma, Vedita gautam, Caterina Lopez, Gautam Sharma, Shweta Verma,Vedita Pratap Singh.

Producer: Karana Arora

Director: Ankush Bhatt

Music Director: Sandeep-Surya



Synopsis

A realistic gripping account of politics set among the dark underbelly of Mumbai pickpockets in the infamous area of "Bhindi Baazaar"....

Like every other commercial organization here too are employees and their designations. They too have field work, administration structure and skill-set, alongside they also have business rivalry; this is a company called Bhin...




Format                           : AVI
Format/Info                      : Audio Video Interleave
File size                        : 471 MiB
Duration                         : 1h 27mn
Overall bit rate                 : 756 Kbps
Writing application              : Lavf52.39.1
Writing library                  : VirtualDub build 32842/release

Video
ID                               : 0
Format                           : MPEG-4 Visual
Format profile                   : Advanced Simple@L5
Format settings, BVOP            : 2
Format settings, QPel            : No
Format settings, GMC             : No warppoints
Format settings, Matrix          : Default (H.263)
Muxing mode                      : Packed bitstream
Codec ID                         : XVID
Codec ID/Hint                    : XviD
Duration                         : 1h 27mn
Bit rate                         : 679 Kbps
Width                            : 620 pixels
Height                           : 270 pixels
Display aspect ratio             : 2.25:1
Frame rate                       : 25.000 fps
Color space                      : YUV
Chroma subsampling               : 4:2:0
Bit depth                        : 8 bits
Scan type                        : Progressive
Compression mode                 : Lossy
Bits/(Pixel*Frame)               : 0.162
Stream size                      : 423 MiB (90%)
Writing library                  : XviD 63

Audio
ID                               : 1
Format                           : MPEG Audio
Format version                   : Version 1
Format profile                   : Layer 3
Mode                             : Joint stereo
Mode extension                   : MS Stereo
Codec ID                         : 55
Codec ID/Hint                    : MP3
Duration                         : 1h 27mn
Bit rate mode                    : Constant
Bit rate                         : 64.0 Kbps
Channel(s)                       : 2 channels
Sampling rate                    : 48.0 KHz
Compression mode                 : Lossy
Stream size                      : 39.9 MiB (8%)
Alignment                        : Aligned on interleaves
Interleave, duration             : 24 ms (0.60 video frame)
Interleave, preload duration     : 504 ms





Screens/Covers:
 
http://bollywoodreleases.info/images/22321225712874224263.png 
http://bollywoodreleases.info/images/60324022409556472303.png 
http://bollywoodreleases.info/images/18991454443757695478.png 
http://bollywoodreleases.info/images/05573520308899339590.png 
http://bollywoodreleases.info/images/33462465909828876135.png






****check out my other releases****

 
http://thepiratebay.org/user/tdkdemon/













    <<<<<<<SUPERFAST RELEASES BROUGHT TO YOU BY>>>>>>

          


                                  Masti Torrent Releasers [ MTR ]


             8888b.  888888 8b    d8  dP"Yb  88b 88     88888 8b    d8 888888 88""Yb 88888 
              8I  Yb 88__   88b  d88 dP   Yb 88Yb88     88    88b  d88   88   88__dP    88 
              8I  dY 88""   88YbdP88 Yb   dP 88 Y88     88    88YbdP88   88   88"Yb     88 
             8888Y"  888888 88 YY 88  YbodP  88  Y8     88888 88 YY 88   88   88  Yb 88888 
